<?xml version="1.0" encoding="UTF-8" standalone="no"?><svg xmlns:svg="http://www.w3.org/2000/svg" xmlns="http://www.w3.org/2000/svg" xmlns:xlink="http://www.w3.org/1999/xlink" version="1.0" width="501px" height="47px" viewBox="0 0 128 12" xml:space="preserve"><g><rect x="-128" y="2" width="128" height="8" fill="#f50000" fill-opacity="1"/><path fill="#ffffff" fill-opacity="0"  d="M-122.926,2h2.049l-4.768,7.962h-2.049Zm10,0h2.049l-4.768,7.962h-2.049Zm10,0h2.049l-4.768,7.962h-2.049Zm10,0h2.049l-4.768,7.962h-2.049Zm10,0h2.049l-4.768,7.962h-2.049Zm10,0h2.049l-4.768,7.962h-2.049Zm10,0h2.049l-4.768,7.962h-2.049Zm10,0h2.049l-4.768,7.962h-2.049Zm10,0h2.049l-4.768,7.962h-2.049Zm10,0h2.049l-4.768,7.962h-2.049Zm10,0h2.049l-4.768,7.962h-2.049Zm10,0h2.049l-4.768,7.962h-2.049Zm10,0h2.049L-5.645,9.963H-7.694Z"/><path fill="#ffffff" fill-opacity="0"  d="M-128,2H0V3.5H-128V2Zm0,7H0v1H-128V9Z"/><animateTransform attributeName="transform" type="translate" from="0 0" to="256 0" dur="2250ms" repeatCount="indefinite"/></g></svg>
